<svg width="79" height="96" viewBox="0 0 79 96" fill="none" xmlns="http://www.w3.org/2000/svg">
<path d="M68.2321 42.2759L66.426 42.595V40.1051L68.2321 39.7856C69.5072 39.5601 69.6107 40.0971 69.6107 40.7677C69.6107 41.4596 69.5072 42.0504 68.2321 42.2759Z" fill="#0072CE"/>
<path d="M22.1474 51.8459C22.1474 48.8217 22.4816 47.4141 24.461 47.068C26.4405 46.7221 26.7746 48.0127 26.7746 51.0372C26.7746 54.0614 26.4405 55.469 24.461 55.8148C22.4816 56.161 22.1474 54.87 22.1474 51.8459Z" fill="#0072CE"/>
<path d="M11.5656 52.5491L10.0181 52.8174V49.8535L11.5656 49.5852C13.2526 49.2929 13.2526 50.4082 13.2526 50.7747C13.2526 51.7721 12.7008 52.3525 11.5656 52.5491Z" fill="#0072CE"/>
<path fill-rule="evenodd" clip-rule="evenodd" d="M39.5 83.3208L78.3457 55.8009C78.7719 55.4995 79 55.058 79 54.5877V27.777C79 27.2953 78.7725 26.8556 78.3897 26.5845L41.1361 0.192461C40.4496 -0.293647 39.5 0.197109 39.5 1.03796V12.6792L0.654263 40.1991L0.612112 40.2288C0.228109 40.5008 0 40.942 0 41.4126V68.2357C0 68.7047 0.227489 69.1444 0.610253 69.4155L0.654263 69.4468L37.8639 95.8075C38.5504 96.2936 39.5 95.8029 39.5 94.962V83.3208ZM37.8523 41.5552C37.8171 41.5614 37.7839 41.5833 37.7618 41.6151C37.7394 41.6473 37.7312 41.685 37.7385 41.719L37.9505 42.6767L37.9507 42.6777L37.9507 42.679L37.9505 42.6798L36.4669 48.6616C36.4617 48.6816 36.4347 48.6853 36.4313 48.6666L35.2192 42.1259C35.21 42.0704 35.1618 42.0376 35.1045 42.0479L31.644 42.6686C31.6087 42.6748 31.5755 42.6967 31.5535 42.7285C31.5311 42.761 31.5228 42.7984 31.5301 42.8324L34.4651 56.105V56.1078L34.2593 57.1127C34.2519 57.1492 34.2605 57.1841 34.2826 57.2081C34.3047 57.2322 34.3378 57.2422 34.3731 57.2359L37.6658 56.6436C37.7621 56.6262 37.7897 56.5229 37.7944 56.5023L39.3721 49.9158C39.3798 49.8842 39.4218 49.8771 39.4289 49.9061L40.6735 54.9916L40.6737 54.9926V54.9932L40.6735 54.9941L40.4677 55.9989C40.4603 56.0358 40.4686 56.0707 40.491 56.0947C40.5131 56.1188 40.5462 56.1287 40.5815 56.1225L43.8843 55.5287C43.9727 55.5128 44 55.4017 44.0027 55.3889L47.4694 39.9756C47.4777 39.9384 47.4691 39.9022 47.447 39.8779C47.4172 39.8461 47.373 39.8473 47.3519 39.8507L44.0625 40.4415C44.0273 40.4477 43.9941 40.4696 43.972 40.5017C43.9497 40.5338 43.9414 40.5719 43.9487 40.6056L44.1598 41.5596L44.1599 41.561L44.1598 41.5621L42.6765 47.5491C42.6716 47.5688 42.6452 47.5725 42.6415 47.5538L41.4276 41.0125C41.4184 40.957 41.3702 40.9242 41.3128 40.9342L41.1343 40.9663H41.1318L37.8523 41.5552ZM70.0565 50.8402C70.0786 50.864 70.1118 50.8741 70.1471 50.8677L70.6085 50.786V50.7854L74.5326 50.092C74.5741 50.0846 74.6131 50.056 74.6343 50.0165C74.6558 49.9771 74.6571 49.9321 74.6377 49.8989L71.4452 44.3903L71.5371 44.3186C72.766 43.3624 73.2901 42.1058 73.2901 40.1177C73.2901 36.9386 71.609 35.7551 67.9991 36.3931L62.8093 37.3104C62.7739 37.3166 62.7407 37.3385 62.7186 37.3699C62.6965 37.4016 62.6879 37.4389 62.6953 37.4725L62.9021 38.3935V51.0482L62.6953 52.0426C62.6879 52.0786 62.6965 52.1131 62.7186 52.1371C62.7407 52.1605 62.7739 52.1704 62.8093 52.1642L63.2707 52.0826V52.082L66.307 51.5457C66.3725 51.534 66.426 51.4711 66.426 51.4055V46.0489L67.8276 45.8012L70.1582 50.1447L70.0331 50.7457C70.0257 50.782 70.034 50.8162 70.0565 50.8402ZM49.7633 54.3378C49.728 54.344 49.6948 54.3341 49.6727 54.3102C49.6503 54.286 49.642 54.2516 49.6494 54.215L49.8544 53.2208V40.464L49.6494 39.5427C49.642 39.5089 49.6503 39.4713 49.6727 39.4397C49.6948 39.4077 49.728 39.386 49.7633 39.3795L59.3127 37.6774C59.3781 37.6656 59.4312 37.7099 59.4312 37.776V40.9944C59.4312 41.0605 59.3781 41.1238 59.3127 41.1353L53.3537 42.1974V44.2535L58.7495 43.2922C58.8149 43.2801 58.8683 43.3247 58.8683 43.3908V46.6285C58.8683 46.6946 58.8149 46.7581 58.7495 46.7699L53.3537 47.7313V50.239L59.3127 49.1772C59.3781 49.1654 59.4312 49.2097 59.4312 49.2761V52.4942C59.4312 52.5603 59.3781 52.6236 59.3127 52.6354L50.224 54.255V54.2556L49.7633 54.3378ZM24.461 59.2729C19.1922 60.1939 18.4817 56.3592 18.4817 52.4867C18.4817 50.809 18.5974 48.6601 19.5 46.9188C20.4364 45.1123 22.0592 44.0301 24.461 43.6102C29.7302 42.6889 30.4404 46.5236 30.4404 50.3961C30.4404 52.0738 30.3246 54.2227 29.422 55.9643C28.4856 57.7708 26.8628 58.853 24.461 59.2729ZM6.27972 61.9453C6.2436 61.9517 6.20968 61.9415 6.18706 61.9178C6.16445 61.894 6.15565 61.8594 6.16319 61.823L6.37772 60.8126V48.1593L6.16319 47.2227C6.15565 47.189 6.16445 47.1517 6.18706 47.1199C6.20968 47.0884 6.2436 47.0668 6.27972 47.0603L11.5458 46.1474C13.6933 45.7751 15.2418 46.1468 16.1486 47.2523C16.9175 48.1895 17.0321 49.4512 17.0321 50.1199C17.0321 50.7913 16.9175 52.0981 16.1482 53.3064C15.2418 54.7308 13.693 55.6417 11.5458 56.0137L10.0181 56.2786V61.1781C10.0181 61.2439 9.96342 61.3072 9.89652 61.3186L6.27972 61.9453Z" fill="#0072CE"/>
</svg>
